<svg width="1153" height="148" viewBox="0 0 1153 148" fill="none" xmlns="http://www.w3.org/2000/svg">
<path d="M1090.37 0.892482C1064.55 0.892482 1050.02 54.524 1025.36 54.524C1011.03 54.524 994.179 26.2016 975.463 26.2016C956.747 26.2016 942.462 64.4468 918.653 64.4468C907.784 64.4468 903.085 57.1569 891.905 57.1569C876.439 57.1569 865.714 72.939 854.245 97.3806C846.129 114.639 861.057 119.981 884.017 119.981C904.554 119.981 1046.89 119.615 1152 119.387V54.7067C1135.58 45.7883 1112.79 0.816406 1090.37 0.816406" fill="#F7F5F2"/>
<path d="M577.656 104.046C629.769 59.7784 664.753 53.6726 687.253 56.6186C709.753 59.5647 719.459 71.456 744.821 69.8379C772.733 68.0519 776.424 49.4901 810.848 45.3381C825.661 43.3769 840.933 44.7328 854.687 49.2306C867.529 53.6488 878.381 60.6837 885.959 69.502C860.494 81.0116 874.429 92.5365 848.943 104.046H577.656Z" fill="#F7F5F2"/>
<path d="M665.586 120.705C641.651 112.978 627.916 116.638 607.038 113.168C559.462 105.278 561.966 74.8322 522.823 63.0116C463.17 44.9825 413.864 101.781 354.358 83.0742C323.979 73.5038 326.778 55.068 287.156 44.7656C253.684 36.0628 222.422 41.5936 212.811 43.3829C159.749 53.3328 160.192 78.8447 109.081 89.4724C68.2079 97.9583 54.3997 85.4057 17.3926 94.0543C12.1125 95.2829 4.96635 97.1966 0 99V146H709C697.588 135.08 682.704 126.393 665.659 120.705" fill="#E5E2D8"/>
<path d="M577.243 108.127C427.051 103.183 359.758 68.1204 229.676 79.126C219.237 79.9973 209.088 81.0833 199.229 82.384V114.937V147.489H759.955L811 90.5104C709.908 108.657 629.337 109.832 577.243 108.127Z" fill="#F2F5F7"/>
<path d="M199.229 82.384C147.5 93 140.5 94.5 105 110.5C78.3948 122.491 0.631988 131.144 0.224819 133.187C-0.18235 135.23 0.0551653 143.914 0.224819 148L199.229 147.489V114.937V82.384Z" fill="#F2F5F7"/>
<path d="M564.468 94.854C593.934 99.3913 586.009 103.278 612.661 105.441C637.492 107.468 648.336 94.2339 677.906 98.6805C711.655 103.732 712.876 76.3566 744.474 79.5782C773.443 82.6031 777.747 69.5657 804.048 74.829C815.325 77.0826 838.791 104.821 847.854 108.89V119.295L513.917 124.831V94.8388C528.588 93.4171 549.983 92.5853 564.468 94.8388" fill="#F1EFEB"/>
<path d="M596.814 69.4496L595.523 65.5498C595.434 65.2802 595.228 65.0382 594.935 64.8594C594.642 64.6806 594.277 64.5741 593.895 64.5557C592.605 64.5557 591.78 66.7273 591.78 66.7273L581.142 101.092C581.142 101.092 580.021 108.203 593.832 108.203C607.642 108.203 606.669 102.086 606.754 101.092C606.838 100.098 596.835 69.4955 596.835 69.4955" fill="#05B8B5"/>
<path d="M591.474 108.279L590.819 113.053H597.747L597.452 108.203C596.275 108.313 595.09 108.364 593.904 108.356C593.038 108.356 592.235 108.356 591.474 108.279Z" fill="#DEC6A9"/>
<path d="M616.113 88.3748L615.354 85.9592C615.302 85.7918 615.181 85.6414 615.008 85.5299C614.835 85.4184 614.619 85.3518 614.392 85.3398C613.613 85.3398 613.121 86.687 613.121 86.687L606.767 107.947C606.767 107.947 606.111 112.36 614.33 112.36C622.549 112.36 621.934 108.566 621.996 107.947C622.057 107.327 616.113 88.3748 616.113 88.3748Z" fill="#9EF0F0"/>
<path d="M612.692 112.47L612.297 115.131H616.454L616.287 112.359C615.598 112.416 614.904 112.444 614.209 112.443C613.689 112.443 613.211 112.443 612.754 112.443" fill="#DEC6A9"/>
<path d="M479.727 102.497C464.98 110.394 469.882 111.87 455.983 116.19C443.076 120.192 433.542 109.77 418.526 114.182C398.794 119.994 402.64 127.525 383.736 131.146C365.845 134.585 366.3 129.047 340.074 132.059C332.628 132.911 307.349 144.125 298 147H313L515.302 146.772L513.523 95.042C513.523 95.042 494.412 94.6616 479.727 102.528" fill="#F1EFEB"/>
<path d="M472.416 82.525L471.161 78.683C471.073 78.4191 470.871 78.1828 470.586 78.0092C470.301 77.8355 469.947 77.7337 469.576 77.7188C468.342 77.7187 467.519 79.8431 467.519 79.8431L457.127 113.652C457.127 113.652 456.036 120.673 469.474 120.673C482.911 120.673 481.964 114.647 482.047 113.652C482.129 112.658 472.396 82.525 472.396 82.525" fill="#05B8B5"/>
<path d="M466.768 120.75L466.112 125.524H473.041L472.744 120.674C471.564 120.789 470.374 120.845 469.184 120.842C468.377 120.844 467.57 120.813 466.768 120.75Z" fill="#DEC6A9"/>
<path d="M487.942 97.2803L487.184 94.9334C487.128 94.7735 487.005 94.6307 486.832 94.5254C486.659 94.42 486.444 94.3574 486.22 94.3467C485.462 94.3467 484.949 95.6405 484.949 95.6405L478.596 116.386C478.596 116.386 477.94 120.674 486.159 120.674C494.379 120.674 493.763 116.973 493.825 116.386C493.886 115.799 487.942 97.3555 487.942 97.3555" fill="#9EF0F0"/>
<path d="M484.521 120.727L484.126 124.138H488.283L488.096 120.674C487.407 120.752 486.713 120.794 486.017 120.798C485.533 120.826 485.047 120.826 484.562 120.798" fill="#DEC6A9"/>
<path d="M451.215 99.4442L450.455 97.0442C450.403 96.8768 450.282 96.7263 450.108 96.6149C449.935 96.5034 449.718 96.4368 449.491 96.4248C448.732 96.4248 448.218 97.7719 448.218 97.7719L441.876 119.032C441.876 119.032 441.219 123.445 449.45 123.445C457.68 123.445 457.065 119.636 457.106 119.032C457.147 118.428 451.215 99.4442 451.215 99.4442Z" fill="#9EF0F0"/>
<path d="M447.781 123.488L447.406 126.217H451.563L451.377 123.445C450.687 123.505 449.993 123.533 449.298 123.531C448.779 123.531 448.28 123.531 447.823 123.531" fill="#DEC6A9"/>
<path d="M1152 68.7974C1141.66 68.3161 1131.27 68.7401 1121.06 70.0606C1091.57 74.7024 1099.53 78.5527 1072.83 80.7138C1047.98 82.7531 1037.13 69.4367 1007.54 73.8958C973.765 78.9941 972.564 51.4481 940.921 54.6744C911.93 57.6421 907.622 44.6148 881.322 49.8957C870.016 52.1785 846.532 80.0899 837.462 84.1685V94.639L1151.96 99.8895L1152 68.7974Z" fill="#E5E2D8"/>
<path d="M718.277 120.421C705.154 122.828 705.154 117.8 689.402 114.905C672.512 111.857 663.136 119.385 649.537 119.034C626.664 118.455 619.999 113.869 599.859 112.482C585.389 111.784 570.942 114.08 558.151 119.11C554.54 120.491 550.592 121.327 546.536 121.571C542.481 121.814 538.4 121.459 534.534 120.528C529.429 119.232 524.094 118.492 518.699 118.333C497.69 118.333 493.198 121.381 480.944 125.19C471.94 127.964 468.008 121.899 453.705 124.337C440.934 126.516 442.899 132.611 431.66 133.388C399.659 135.613 399.121 147.255 393.367 146.996H415.536H718.298L718.277 120.421Z" fill="#F1EFEB"/>
<path d="M1152 98.1372C1138.89 100.552 1137.98 88.7057 1122.22 85.8014C1105.33 82.7442 1095.95 90.2954 1082.34 89.9591C1059.44 89.3783 1052.79 84.7619 1032.63 83.3862C1018.15 82.6815 1003.69 84.9794 990.876 90.0203C987.266 91.411 983.316 92.2545 979.257 92.5012C975.198 92.748 971.113 92.3931 967.243 91.4572C962.145 90.1477 956.812 89.4008 951.418 89.2407C930.395 89.2407 912.272 83.2944 900.01 87.0854C891 89.8674 887.064 83.7683 872.752 86.2293C859.972 88.4152 861.94 94.5297 850.693 95.3093C818.671 97.5257 832.052 118.101 826.377 117.856H848.27L1152 119.981V98.1372Z" fill="white"/>
<path d="M564.281 114.925L563.809 113.427C563.771 113.326 563.693 113.236 563.582 113.169C563.472 113.102 563.335 113.061 563.192 113.053C562.7 113.053 562.371 113.877 562.371 113.877L558.265 126.954C558.265 126.954 557.835 129.68 563.07 129.68C568.305 129.68 567.915 127.328 567.956 126.954C567.997 126.579 564.199 114.97 564.199 114.97" fill="#9EF0F0"/>
<path d="M562.664 129.714L562.414 131.759H565.185L565.06 129.681C564.609 129.7 564.157 129.7 563.706 129.681H562.768" fill="#DEC6A9"/>
<path d="M553.842 107.003L553.083 104.649C553.031 104.486 552.909 104.34 552.736 104.231C552.562 104.122 552.346 104.058 552.119 104.046C551.34 104.046 550.849 105.358 550.849 105.358L544.413 126.073C544.413 126.073 543.757 130.373 551.976 130.373C560.195 130.373 559.581 126.677 559.642 126.073C559.704 125.47 553.759 107.003 553.759 107.003" fill="#05B8B5"/>
<path d="M550.338 130.416L549.943 133.144H554.1L553.914 130.373C553.224 130.431 552.53 130.46 551.835 130.459C551.315 130.459 550.837 130.459 550.38 130.459" fill="#DEC6A9"/>
<path d="M704.101 102.231L703.342 99.8156C703.291 99.6482 703.169 99.4978 702.995 99.3863C702.822 99.2749 702.606 99.2083 702.379 99.1963C701.6 99.1963 701.109 100.543 701.109 100.543L694.754 121.803C694.754 121.803 694.098 126.216 702.318 126.216C710.537 126.216 709.922 122.407 709.983 121.803C710.045 121.199 704.101 102.231 704.101 102.231Z" fill="#9EF0F0"/>
<path d="M700.679 126.259L700.284 128.987H704.441L704.255 126.216C703.565 126.274 702.871 126.303 702.176 126.302C701.657 126.302 701.178 126.302 700.721 126.302" fill="#DEC6A9"/>
<path d="M685.812 102.831L685.018 100.477C684.96 100.317 684.831 100.173 684.65 100.068C684.468 99.9621 684.244 99.8994 684.009 99.8887C683.215 99.8887 682.679 101.186 682.679 101.186L676.049 121.916C676.049 121.916 675.362 126.216 683.966 126.216C692.571 126.216 691.927 122.504 691.97 121.916C692.013 121.327 685.812 102.831 685.812 102.831Z" fill="#05B8B5"/>
<path d="M682.666 126.372L682.271 129.68H686.428L686.24 126.216C685.552 126.302 684.857 126.343 684.162 126.337C683.621 126.337 683.143 126.337 682.686 126.337" fill="#DEC6A9"/>
<path d="M667.248 115.697L666.719 114.136C666.682 114.029 666.599 113.934 666.48 113.864C666.361 113.793 666.214 113.752 666.06 113.745C665.554 113.745 665.202 114.604 665.202 114.604L660.802 128.239C660.802 128.239 660.362 131.066 665.972 131.066C671.582 131.066 671.164 128.629 671.186 128.239C671.208 127.848 667.181 115.744 667.181 115.744" fill="#9EF0F0"/>
<path d="M665.213 131.088L664.95 132.451H667.722L667.613 131.065C667.141 131.084 666.666 131.084 666.194 131.065C665.867 131.077 665.539 131.077 665.213 131.065" fill="#DEC6A9"/>
<path d="M929.606 107.116C929.606 105.118 926.526 103.493 922.76 103.493H922.031C922.043 103.348 922.043 103.204 922.031 103.059C922.031 100.241 917.704 97.9344 912.377 97.9344C911.065 97.9378 909.76 98.0839 908.506 98.3679C908.214 96.51 905.281 95.0391 901.681 95.0391C898.081 95.0391 895.147 96.5874 894.876 98.3834C893.796 98.2077 892.694 98.1194 891.588 98.1202C885.553 98.1202 880.663 100.721 880.663 103.926C880.653 104.029 880.653 104.133 880.663 104.236C879.668 103.972 878.62 103.836 877.563 103.833C873.776 103.833 870.717 105.459 870.717 107.456C870.717 109.454 873.776 111.095 877.563 111.095C877.965 111.118 878.368 111.118 878.769 111.095C881.87 112.442 890.631 113.417 900.973 113.417C912.231 113.417 921.533 127.646 923.863 126.098C927.068 125.804 929.606 108.958 929.606 107.162" fill="#F1EFEB"/>
<path d="M884.573 109.26L876.331 116.665L813.389 117.209L800.743 97.8105H865.833L884.573 109.26Z" fill="#E5E2D8"/>
<path d="M804.207 74.2552L814.095 65.9414H855.896L865.867 74.2552H804.207Z" fill="#51A0DC"/>
<path d="M865.867 74.2549H804.207V97.8106H865.867V74.2549Z" fill="#8DC0E8"/>
<path d="M969.097 76.3336L945.541 62.6676V47.2354L969.097 60.9014V76.3336Z" fill="#51A0DC"/>
<path d="M922.678 76.3336L945.541 62.6676V47.2354L922.678 60.9014V76.3336Z" fill="#51A0DC"/>
<path d="M945.888 62.4766L922.678 76.3684V145.614H969.097V76.3684L945.888 62.4766Z" fill="#B3D6EF"/>
<path d="M931.685 85.3398H928.914V87.4183H931.685V85.3398Z" fill="white"/>
<path d="M931.685 90.8828H928.914V92.9613H931.685V90.8828Z" fill="white"/>
<path d="M931.685 97.1182H928.914V99.1966H931.685V97.1182Z" fill="white"/>
<path d="M939.306 79.7979H936.534V81.1835H939.306V79.7979Z" fill="white"/>
<path d="M939.306 85.3398H936.534V87.4183H939.306V85.3398Z" fill="white"/>
<path d="M939.306 90.8828H936.534V92.9613H939.306V90.8828Z" fill="white"/>
<path d="M939.306 97.1182H936.534V99.1966H939.306V97.1182Z" fill="white"/>
<path d="M946.927 73.5625H944.156V75.6409H946.927V73.5625Z" fill="white"/>
<path d="M946.927 79.7979H944.156V81.1835H946.927V79.7979Z" fill="white"/>
<path d="M946.927 85.3398H944.156V87.4183H946.927V85.3398Z" fill="white"/>
<path d="M946.927 90.8828H944.156V92.9613H946.927V90.8828Z" fill="white"/>
<path d="M946.927 97.1182H944.156V99.1966H946.927V97.1182Z" fill="white"/>
<path d="M954.548 79.7979H951.776V81.1835H954.548V79.7979Z" fill="white"/>
<path d="M954.548 85.3398H951.776V87.4183H954.548V85.3398Z" fill="white"/>
<path d="M954.548 90.8828H951.776V92.9613H954.548V90.8828Z" fill="white"/>
<path d="M954.548 97.1182H951.776V99.1966H954.548V97.1182Z" fill="white"/>
<path d="M962.169 85.3398H960.09V87.4183H962.169V85.3398Z" fill="white"/>
<path d="M962.169 90.8828H960.09V92.9613H962.169V90.8828Z" fill="white"/>
<path d="M962.169 97.1182H960.09V99.1966H962.169V97.1182Z" fill="white"/>
<path d="M931.685 102.66H928.914V104.739H931.685V102.66Z" fill="white"/>
<path d="M939.306 102.66H936.534V104.739H939.306V102.66Z" fill="white"/>
<path d="M946.927 102.66H944.156V104.739H946.927V102.66Z" fill="white"/>
<path d="M954.548 102.66H951.776V104.739H954.548V102.66Z" fill="white"/>
<path d="M962.169 102.66H960.09V104.739H962.169V102.66Z" fill="white"/>
<path d="M874.874 116.517H827.762V146.308H874.874V116.517Z" fill="#F1EFEB"/>
<path d="M777.247 132.451L765.409 108.285C765.409 108.285 780.994 103.663 789.749 107.938C801.795 113.828 806.163 108.406 819.389 109.524C831.932 110.581 841.618 130.503 841.618 130.503L777.247 132.451Z" fill="#F1EFEB"/>
<path d="M817.794 98.5032C818.943 96.859 816.123 95.9832 814.682 96.9666C814.443 96.5109 814.022 96.1196 813.473 95.845C812.924 95.5704 812.276 95.4256 811.612 95.43H811.445C811.596 95.1121 811.695 94.7818 811.737 94.4465C811.818 93.9044 811.739 93.3559 811.509 92.8375C811.279 92.3192 810.901 91.8429 810.401 91.4403C809.902 91.0376 809.291 90.7179 808.611 90.5023C807.93 90.2867 807.194 90.1803 806.453 90.1901C805.29 90.2021 804.154 90.4456 803.165 90.8947C802.175 91.3439 801.37 91.9819 800.834 92.7408C799.754 92.7644 798.729 93.0948 797.973 93.6628C797.778 93.4448 797.511 93.267 797.197 93.146C796.882 93.025 796.531 92.965 796.177 92.9714C795.533 92.9768 794.914 93.157 794.44 93.4776C793.966 93.7981 793.67 94.2362 793.608 94.7078C793.563 95.0035 793.636 95.3024 793.817 95.5683C791.415 94.5388 789.2 97.3508 791.017 98.5032H817.794Z" fill="#9EF0F0"/>
<path d="M819.449 109.614C826.527 109.038 836.329 118.412 840.25 120.399C844.171 122.386 844.873 118.442 852.26 118.412C860.639 118.412 858.761 115.909 863.301 114.271C865.274 113.681 867.444 113.55 869.521 113.894C871.598 114.238 873.482 115.042 874.919 116.197C880.739 121.84 900.508 135.916 900.508 135.916L885.052 134.551L827.455 132.382L819.449 109.614Z" fill="#F1EFEB"/>
<path d="M827.762 124.332C832.658 123.397 838.516 126.02 841.301 128.266C844.087 130.512 845.889 128.402 849.372 129.276C853.96 130.421 857.156 134.189 862.543 133.571C865.686 133.18 868.916 133.607 871.678 134.777L874.874 146.308H827.762V124.332Z" fill="#F1EFEB"/>
<path d="M829.841 124.332C824.386 123.397 817.807 126.02 814.705 128.266C811.602 130.512 809.584 128.402 805.69 129.276C800.548 130.421 796.987 134.189 790.97 133.571C787.472 133.177 783.892 133.599 780.748 134.777L777.187 146.308H829.841V124.332Z" fill="#F1EFEB"/>
<path d="M812.381 99.6805L811.38 96.5282C811.31 96.3114 811.15 96.1171 810.922 95.9739C810.694 95.8306 810.411 95.7459 810.114 95.7324C809.114 95.7324 808.439 97.4769 808.439 97.4769L800.066 125.297C800.066 125.297 799.209 131.066 810.033 131.066C820.856 131.066 820.08 126.093 820.141 125.297C820.202 124.501 812.381 99.6805 812.381 99.6805Z" fill="#05B8B5"/>
<path d="M808.194 131.13L807.671 135.222H813.213L812.982 131.065C812.032 131.154 811.075 131.197 810.118 131.195C809.477 131.221 808.835 131.221 808.194 131.195" fill="#DEC6A9"/>
<path d="M825.058 113.374L824.435 111.461C824.392 111.329 824.291 111.211 824.15 111.123C824.008 111.036 823.832 110.984 823.647 110.975C823.024 110.975 822.609 112.038 822.609 112.038L817.38 128.943C817.38 128.943 816.841 132.452 823.605 132.452C830.37 132.452 829.831 129.414 829.831 128.943C829.831 128.472 824.996 113.374 824.996 113.374" fill="#9EF0F0"/>
<path d="M822.542 131.811L822.22 134.53H825.684L825.535 131.759C824.541 131.861 823.535 131.861 822.542 131.759" fill="#DEC6A9"/>
<path d="M349.516 56.0466L348.521 52.8804C348.445 52.6636 348.28 52.4702 348.05 52.3275C347.821 52.1848 347.538 52.1 347.241 52.085C346.246 52.085 345.575 53.844 345.575 53.844L337.266 81.6367C337.266 81.6367 336.392 87.4186 347.18 87.4186C357.967 87.4186 357.154 82.4321 357.337 81.6367C357.52 80.8413 349.618 56.0466 349.618 56.0466" fill="#05B8B5"/>
<path d="M345.393 87.4824L344.87 91.5749H350.412L350.182 87.418C349.24 87.5198 348.29 87.5683 347.338 87.563C346.69 87.5888 346.04 87.5888 345.393 87.563" fill="#DEC6A9"/>
<path d="M362.236 69.7422L361.614 67.8284C361.614 67.8284 361.447 67.3271 360.825 67.3271C360.202 67.3271 359.767 68.4056 359.767 68.4056L354.579 85.2958C354.579 85.2958 354.04 88.8044 360.804 88.8044C367.569 88.8044 367.029 85.7666 367.029 85.2958C367.029 84.8249 362.216 69.7422 362.216 69.7422" fill="#9EF0F0"/>
<path d="M359.759 88.1467L359.419 90.8826H362.883L362.734 88.1113C362.146 88.1403 361.557 88.1403 360.97 88.1113C360.567 88.1308 360.163 88.1308 359.759 88.1113" fill="#DEC6A9"/>
<path d="M64.2668 92.9617L63.2719 89.7954C63.196 89.5786 63.0313 89.3852 62.8017 89.2425C62.5721 89.0998 62.2893 89.015 61.9922 89C60.9968 89 60.3257 90.7591 60.3257 90.7591L52.017 118.552C52.017 118.552 51.1432 124.334 61.9307 124.334C72.7183 124.334 71.9057 119.347 72.0885 118.552C72.2714 117.756 64.369 92.9617 64.369 92.9617" fill="#05B8B5"/>
<path d="M60.144 124.398L59.6211 128.491H65.1636L64.9338 124.334C63.9915 124.436 63.0411 124.484 62.0895 124.479C61.4416 124.505 60.792 124.505 60.144 124.479" fill="#DEC6A9"/>
<path d="M76.9873 106.657L76.3652 104.743C76.3652 104.743 76.1984 104.242 75.5759 104.242C74.9534 104.242 74.5181 105.321 74.5181 105.321L69.3305 122.211C69.3305 122.211 68.791 125.719 75.5557 125.719C82.3203 125.719 81.7808 122.682 81.7808 122.211C81.7808 121.74 76.9671 106.657 76.9671 106.657" fill="#9EF0F0"/>
<path d="M74.5107 125.063L74.1704 127.799H77.6345L77.4851 125.027C76.8978 125.056 76.3087 125.056 75.7214 125.027C75.3181 125.047 74.9141 125.047 74.5107 125.027" fill="#DEC6A9"/>
<path d="M827.762 135.83C834.056 131.391 837.019 136.207 842.449 135.211C846.974 134.365 847.982 132.795 855.058 131.678C859.377 130.999 861.229 132.025 864.17 129.76C867.111 127.496 866.473 124.552 875.071 123.6C884.492 122.574 886.652 126.982 886.652 126.982L884.163 132.327L877.375 146.308H827.762V135.83Z" fill="white"/>
<path d="M829.841 135.822C823.472 131.401 820.497 136.214 814.982 135.203C810.404 134.373 809.383 132.804 802.224 131.687C797.875 131.008 795.982 132.019 793.006 129.756C790.03 127.493 790.675 124.55 781.996 123.6C772.444 122.574 770.259 126.995 770.259 126.995L772.777 132.321L779.645 146.308H829.841V135.822Z" fill="white"/>
<path d="M922.678 116.517H874.874V146.308H922.678V116.517Z" fill="#8DC0E8"/>
<path d="M722.426 85.3398L718.298 103.353H780.651L776.523 85.3398H722.426Z" fill="#51A0DC"/>
<path d="M761.002 103.012L749.463 94.3467L737.926 103.012H718.298V146.308H780.651V103.012H761.002Z" fill="#B3D6EF"/>
<path d="M726.611 114.438H723.84V121.367H726.611V114.438Z" fill="white"/>
<path d="M739.082 114.438H736.311V121.367H739.082V114.438Z" fill="white"/>
<path d="M750.86 114.438H748.089V121.367H750.86V114.438Z" fill="white"/>
<path d="M762.638 114.438H759.866V121.367H762.638V114.438Z" fill="white"/>
<path d="M775.108 114.438H771.644V121.367H775.108V114.438Z" fill="white"/>
<path d="M726.611 126.909H723.84V134.53H726.611V126.909Z" fill="white"/>
<path d="M739.082 126.909H736.311V134.53H739.082V126.909Z" fill="white"/>
<path d="M750.86 126.909H748.089V134.53H750.86V126.909Z" fill="white"/>
<path d="M762.638 126.909H759.866V134.53H762.638V126.909Z" fill="white"/>
<path d="M775.108 126.909H771.644V134.53H775.108V126.909Z" fill="white"/>
<path d="M1023.92 96.9841C1022.22 96.9804 1020.54 97.2274 1018.99 97.7105C1018.61 95.062 1014.47 92.9734 1009.39 92.9734C1007.65 92.899 1005.91 93.1588 1004.34 93.7268C1002.77 94.2948 1001.44 95.1515 1000.46 96.2122C998.543 95.3412 996.322 94.8896 994.062 94.9106C989.09 94.9106 984.988 96.9236 984.49 99.451C982.714 98.7536 980.726 98.3944 978.71 98.4067C973.406 98.4067 969.097 100.707 969.097 103.537V103.643V146.308H1033.53V102.1C1033.53 99.2694 1029.22 96.9689 1023.92 96.9689" fill="#F1EFEB"/>
<path d="M1000.84 141.216C1000.84 137.966 997.254 133.488 992.836 133.488C991.716 133.491 990.609 133.666 989.59 134.002C988.571 134.338 987.663 134.826 986.925 135.435C986.876 133.922 986.017 132.482 984.528 131.417C983.038 130.353 981.035 129.747 978.939 129.728C977.776 129.732 976.629 129.922 975.579 130.283V130.163C975.601 128.616 974.773 127.126 973.276 126.02C971.779 124.914 969.735 124.282 967.594 124.262C965.86 124.264 964.176 124.68 962.804 125.445C962.619 124.008 961.702 122.672 960.23 121.695C958.759 120.718 956.837 120.171 954.838 120.158C952.871 120.16 950.977 120.694 949.529 121.656C948.895 120.413 947.685 119.367 946.105 118.695C944.524 118.023 942.671 117.767 940.859 117.97C939.046 118.173 937.386 118.822 936.162 119.808C934.937 120.794 934.223 122.055 934.139 123.378C932.89 122.83 931.453 122.545 929.991 122.555C928.929 122.562 927.88 122.721 926.902 123.022C925.925 123.323 925.039 123.76 924.296 124.308C923.552 124.855 922.965 125.504 922.569 126.216C922.172 126.927 921.975 127.688 921.986 128.455V146.308H1000.97L1000.84 141.216Z" fill="white"/>
<path d="M1110.56 136.608H1152V95.3301C1151.62 94.3526 1150.94 93.4532 1150.01 92.7029C1149.08 91.9527 1147.93 91.372 1146.64 91.0067C1145.35 90.6414 1143.97 90.5014 1142.59 90.5978C1141.22 90.6943 1139.9 91.0244 1138.73 91.5623C1138.44 89.4599 1137.05 87.5234 1134.85 86.169C1132.98 84.8985 1130.63 84.074 1128.11 83.8029C1125.59 83.5319 1123.02 83.827 1120.74 84.6497C1120.39 82.1429 1115.25 79.1045 1110.43 79.1045L1110.56 136.608Z" fill="#F1EFEB"/>
<path d="M1075.1 67.3271L1040.46 78.7215V115.131H1109.74V78.7215L1075.1 67.3271Z" fill="#8DC0E8"/>
<path d="M1082.03 83.9541H1078.56V86.0325H1082.03V83.9541Z" fill="white"/>
<path d="M1082.03 89.4971H1078.56V90.8827H1082.03V89.4971Z" fill="white"/>
<path d="M1091.73 83.9541H1088.95V86.0325H1091.73V83.9541Z" fill="white"/>
<path d="M1091.73 89.4971H1088.95V90.8827H1091.73V89.4971Z" fill="white"/>
<path d="M1102.12 83.9541H1098.65V86.0325H1102.12V83.9541Z" fill="white"/>
<path d="M1102.12 89.4971H1098.65V90.8827H1102.12V89.4971Z" fill="white"/>
<path d="M1082.03 94.3467H1078.56V96.4251H1082.03V94.3467Z" fill="white"/>
<path d="M1091.73 94.3467H1088.95V96.4251H1091.73V94.3467Z" fill="white"/>
<path d="M1102.12 94.3467H1098.65V96.4251H1102.12V94.3467Z" fill="white"/>
<path d="M1050.16 83.9541H1046.69V86.0325H1050.16V83.9541Z" fill="white"/>
<path d="M1050.16 89.4971H1046.69V90.8827H1050.16V89.4971Z" fill="white"/>
<path d="M1060.55 83.9541H1057.08V86.0325H1060.55V83.9541Z" fill="white"/>
<path d="M1060.55 89.4971H1057.08V90.8827H1060.55V89.4971Z" fill="white"/>
<path d="M1070.94 83.9541H1067.48V86.0325H1070.94V83.9541Z" fill="white"/>
<path d="M1070.94 89.4971H1067.48V90.8827H1070.94V89.4971Z" fill="white"/>
<path d="M1050.16 94.3467H1046.69V96.4251H1050.16V94.3467Z" fill="white"/>
<path d="M1060.55 94.3467H1057.08V96.4251H1060.55V94.3467Z" fill="white"/>
<path d="M1070.94 94.3467H1067.48V96.4251H1070.94V94.3467Z" fill="white"/>
<path d="M1040.46 79.1046L1075.1 68.3695V55.5488L1040.46 66.5599V79.1046Z" fill="#51A0DC"/>
<path d="M1110.43 79.1046L1075.1 68.3695V55.5488L1110.43 66.5599V79.1046Z" fill="#51A0DC"/>
<path d="M1120.04 109.845C1108.8 111.886 1107.04 109.044 1093.02 110.238C1082.22 111.16 1079.19 116.088 1069.55 114.954C1059.9 113.821 1047.15 111.326 1033.53 115.106V146.308H1152V105.234C1135.27 101.258 1127.84 108.424 1120.04 109.769" fill="white"/>
<path d="M622.907 141.19C606.497 138.528 603.986 133.662 584.319 131.41C562.266 128.875 556.208 135.158 542.35 132.277C523.471 128.387 513.513 137.001 486.335 132.749C466.315 129.6 442.54 143.567 414.844 147L447.83 146.874H718.298V130.481C680.208 119.458 639.234 143.819 622.99 141.19" fill="white"/>
<path d="M388.594 120.149L387.8 117.798C387.741 117.638 387.612 117.494 387.431 117.389C387.25 117.283 387.026 117.221 386.791 117.21C385.997 117.21 385.461 118.506 385.461 118.506L378.831 139.242C378.831 139.242 378.145 143.537 386.749 143.537C395.353 143.537 394.709 139.845 394.752 139.242C394.795 138.639 388.594 120.194 388.594 120.194" fill="#05B8B5"/>
<path d="M385.426 143.675L385.053 147H389.21L389.022 143.536C388.333 143.608 387.638 143.643 386.944 143.64C386.424 143.64 385.925 143.64 385.468 143.64" fill="#DEC6A9"/>
<path d="M417.141 111.476L416.635 109.978C416.635 109.978 416.482 109.589 415.976 109.589C415.47 109.589 415.096 110.413 415.096 110.413L410.696 123.505C410.696 123.505 410.234 126.216 415.844 126.216C421.453 126.216 421.035 123.88 421.079 123.505C421.123 123.131 417.053 111.521 417.053 111.521" fill="#9EF0F0"/>
<path d="M415.104 126.249L414.844 128.294H417.616L417.485 126.216C417.017 126.243 416.547 126.243 416.079 126.216H415.104" fill="#DEC6A9"/>
<path d="M195.776 82.5597L194.982 80.2088C194.924 80.0487 194.794 79.9056 194.613 79.8C194.432 79.6944 194.208 79.6318 193.973 79.6211C193.179 79.6211 192.644 80.9171 192.644 80.9171L186.013 101.653C186.013 101.653 185.327 105.948 193.931 105.948C202.535 105.948 201.892 102.256 201.935 101.653C201.977 101.05 195.776 82.6049 195.776 82.6049" fill="#05B8B5"/>
<path d="M192.609 106.087L192.235 109.412H196.392L196.204 105.948C195.515 106.02 194.821 106.055 194.126 106.052C193.606 106.052 193.108 106.052 192.65 106.052" fill="#DEC6A9"/>
<path d="M224.323 73.8875L223.817 72.3895C223.817 72.3895 223.664 72 223.158 72C222.652 72 222.278 72.8239 222.278 72.8239L217.878 85.9162C217.878 85.9162 217.416 88.6276 223.026 88.6276C228.635 88.6276 228.217 86.2907 228.261 85.9162C228.305 85.5417 224.235 73.9324 224.235 73.9324" fill="#9EF0F0"/>
<path d="M222.286 88.6614L222.026 90.7064H224.798L224.668 88.6279C224.199 88.6555 223.729 88.6555 223.261 88.6279H222.286" fill="#DEC6A9"/>
<path d="M530.334 83.8265L529.861 82.2661C529.823 82.1608 529.744 82.0669 529.634 81.9971C529.524 81.9273 529.388 81.885 529.245 81.876C528.753 81.876 528.424 82.7343 528.424 82.7343L524.318 96.3565C524.318 96.3565 523.886 99.1964 529.122 99.1964C534.358 99.1964 533.967 96.7465 534.008 96.3565C534.049 95.9664 530.252 83.8733 530.252 83.8733" fill="#05B8B5"/>
<path d="M528.033 98.5377L527.773 100.582H530.545L530.414 98.5039C529.946 98.5234 529.476 98.5234 529.007 98.5039H528.033" fill="#DEC6A9"/>
<path d="M922.678 103.354H879.066L874.874 116.517H922.678V103.354Z" fill="#51A0DC"/>
<path d="M941.72 147.001C943.259 144.811 939.433 143.649 937.562 144.872C937.22 144.279 936.641 143.775 935.899 143.425C935.157 143.075 934.288 142.895 933.403 142.909H933.195C933.384 142.481 933.51 142.041 933.57 141.595C933.676 140.872 933.57 140.142 933.258 139.452C932.947 138.761 932.437 138.127 931.763 137.59C931.089 137.053 930.265 136.627 929.348 136.338C928.43 136.05 927.438 135.906 926.438 135.917C924.867 135.937 923.334 136.265 921.998 136.866C920.662 137.466 919.574 138.317 918.849 139.33C918.123 139.336 917.406 139.449 916.741 139.662C916.077 139.874 915.478 140.183 914.982 140.568C914.715 140.274 914.35 140.034 913.921 139.87C913.492 139.706 913.012 139.624 912.528 139.631C911.663 139.643 910.834 139.885 910.198 140.311C909.562 140.736 909.162 141.317 909.076 141.942C909.012 142.336 909.106 142.734 909.347 143.09C906.124 141.731 903.109 145.461 905.562 147.001H941.72Z" fill="#9EF0F0"/>
<path d="M1059.51 146.308C1061.02 144.13 1057.26 142.966 1055.42 144.191C1055.09 143.597 1054.52 143.093 1053.79 142.742C1053.06 142.391 1052.21 142.211 1051.34 142.225H1051.14C1051.32 141.797 1051.45 141.356 1051.51 140.909C1051.61 140.185 1051.51 139.453 1051.21 138.761C1050.9 138.068 1050.4 137.432 1049.74 136.894C1049.08 136.356 1048.27 135.929 1047.37 135.641C1046.46 135.353 1045.49 135.211 1044.51 135.223C1042.96 135.244 1041.46 135.572 1040.15 136.174C1038.84 136.775 1037.77 137.628 1037.06 138.641C1036.35 138.644 1035.64 138.755 1034.99 138.965C1034.34 139.176 1033.75 139.482 1033.26 139.866C1032.99 139.576 1032.64 139.341 1032.22 139.18C1031.79 139.019 1031.33 138.937 1030.85 138.943C1030.01 138.955 1029.19 139.197 1028.57 139.623C1027.94 140.05 1027.55 140.631 1027.47 141.257C1027.41 141.651 1027.5 142.05 1027.73 142.406C1024.57 141.045 1021.61 144.78 1024.02 146.308H1059.51Z" fill="#9EF0F0"/>
<path d="M1000.97 115.131L1006.19 104.046H1026.57L1033.53 115.131H1000.97Z" fill="#51A0DC"/>
<path d="M1033.53 115.131H1000.97V146.308H1033.53V115.131Z" fill="#B3D6EF"/>
<path d="M1025.21 121.366H1020.37V124.83H1025.21V121.366Z" fill="white"/>
<path d="M1025.21 130.373H1020.37V133.837H1025.21V130.373Z" fill="white"/>
<path d="M1014.13 121.366H1009.97V124.83H1014.13V121.366Z" fill="white"/>
<path d="M1014.13 130.373H1009.97V133.837H1014.13V130.373Z" fill="white"/>
<path d="M1118.81 86.775L1117.56 82.8711C1117.47 82.6012 1117.27 82.3591 1116.99 82.18C1116.7 82.001 1116.35 81.8945 1115.97 81.876C1114.74 81.876 1113.92 84.05 1113.92 84.05L1103.52 118.389C1103.52 118.389 1102.43 125.523 1115.87 125.523C1129.31 125.523 1128.36 119.4 1128.44 118.389C1128.53 117.379 1118.79 86.775 1118.79 86.775" fill="#05B8B5"/>
<path d="M1113.79 125.6L1113.2 130.373H1119.44L1119.17 125.523C1118.11 125.633 1117.04 125.684 1115.97 125.676C1115.19 125.676 1114.46 125.676 1113.79 125.6Z" fill="#DEC6A9"/>
<path d="M1134.34 102.153L1133.58 99.7997C1133.53 99.6366 1133.41 99.4901 1133.23 99.3815C1133.06 99.2729 1132.84 99.208 1132.62 99.1963C1131.86 99.1963 1131.35 100.509 1131.35 100.509L1124.99 121.223C1124.99 121.223 1124.34 125.523 1132.56 125.523C1140.77 125.523 1140.16 121.812 1140.22 121.223C1140.28 120.635 1134.34 102.153 1134.34 102.153Z" fill="#9EF0F0"/>
<path d="M1130.92 125.566L1130.52 128.295H1134.68L1134.49 125.523C1133.8 125.582 1133.11 125.61 1132.41 125.609C1131.89 125.609 1131.42 125.609 1130.96 125.609" fill="#DEC6A9"/>
<path d="M1097.61 104.309L1096.85 101.894C1096.8 101.726 1096.68 101.576 1096.51 101.464C1096.33 101.353 1096.12 101.286 1095.89 101.274C1095.13 101.274 1094.62 102.622 1094.62 102.622L1088.27 123.881C1088.27 123.881 1087.62 128.294 1095.85 128.294C1104.08 128.294 1103.46 124.501 1103.5 123.881C1103.54 123.262 1097.61 104.309 1097.61 104.309Z" fill="#9EF0F0"/>
<path d="M1094.89 127.655L1094.5 131.066H1098.65L1098.47 127.602C1097.78 127.676 1097.08 127.711 1096.39 127.709C1095.85 127.709 1095.37 127.709 1094.91 127.709" fill="#DEC6A9"/>
<path d="M1152 147L1 147" stroke="black" stroke-width="2" stroke-linecap="round" stroke-linejoin="round"/>
</svg>
