<svg
    width="32"
    height="32"
    viewBox="0 0 32 32"
    fill="#00335b"
    xmlns="http://www.w3.org/2000/svg"
>
    <path d="M23.12 10.64c-.16-.4-.4-.72-.72-1.04-.32-.32-.64-.48-1.04-.72-.32-.16-.8-.24-1.68-.32-.8 0-1.12-.08-2.56-.08h-2c-1.6 0-2 0-2.8.08-.88.08-1.36.16-1.68.32-.4.16-.72.4-1.04.72-.32.32-.48.64-.72 1.04-.16.32-.24.8-.32 1.68-.08.88-.08 1.2-.08 3.2v.96c0 2 0 2.32.08 3.2.08.88.16 1.36.32 1.68.16.4.4.72.72 1.04.32.32.64.48 1.04.72.32.16.8.24 1.68.32.8 0 1.12.08 2.56.08h2c1.6 0 2 0 2.8-.08.88-.08 1.36-.16 1.68-.32.4-.16.72-.4 1.04-.72.32-.32.48-.64.72-1.04.16-.32.24-.8.32-1.68 0-.8.08-1.12.08-2.56v-2.24c0-1.44 0-1.76-.08-2.56 0-.88-.16-1.36-.32-1.68ZM16 20.56c-2.56 0-4.56-2.08-4.56-4.56 0-2.48 2.08-4.56 4.56-4.56 2.48 0 4.56 2.08 4.56 4.56 0 2.48-2 4.56-4.56 4.56Zm4.96-8.4c-.64 0-1.12-.48-1.12-1.12 0-.64.48-1.12 1.12-1.12.64 0 1.12.48 1.12 1.12 0 .64-.48 1.12-1.12 1.12Z" />
    <path d="M16 0C7.2 0 0 7.2 0 16s7.2 16 16 16 16-7.2 16-16S24.8 0 16 0Zm9.12 19.76c-.08.96-.16 1.6-.4 2.24-.24.64-.56 1.12-1.04 1.6s-1.04.8-1.6 1.04-1.28.4-2.24.4c-.8 0-1.12.08-2.64.08h-2.08c-1.68 0-2 0-2.88-.08-.96-.08-1.6-.16-2.24-.4-.64-.24-1.12-.56-1.6-1.04s-.8-1.04-1.04-1.6-.4-1.28-.4-2.24c0-.88-.08-1.2-.08-3.04v-1.2c0-2.08 0-2.4.08-3.28.08-.96.16-1.6.4-2.24.24-.64.56-1.12 1.04-1.6s1.04-.8 1.6-1.04 1.28-.4 2.24-.4c.8 0 1.12-.08 2.64-.08h2.24-.16.24-.08c1.52 0 1.84 0 2.72.08.96.08 1.6.16 2.24.4.64.24 1.12.56 1.6 1.04s.8 1.04 1.04 1.6.4 1.28.4 2.24c0 .8.08 1.12.08 2.64v2.08c-.08 1.6-.08 2-.08 2.8Z" />
    <path d="M16 18.96c-1.6 0-2.96-1.36-2.96-2.96 0-1.6 1.36-2.96 2.96-2.96 1.6 0 2.96 1.36 2.96 2.96 0 1.6-1.36 2.96-2.96 2.96Z" />
</svg>
