<svg
    width="32"
    height="32"
    viewBox="0 0 32 32"
    fill="#00335b"
    xmlns="http://www.w3.org/2000/svg"
>
    <path
        fill-rule="evenodd"
        clip-rule="evenodd"
        d="M16 32C7.163 32 0 24.837 0 16S7.163 0 16 0s16 7.163 16 16-7.163 16-16 16Zm8.8-20.8a6.901 6.901 0 0 1-1.976.552 3.441 3.441 0 0 0 1.51-1.904c-.666.4-1.405.68-2.184.84C21.516 10 20.624 9.6 19.612 9.6a3.434 3.434 0 0 0-3.34 4.216 9.805 9.805 0 0 1-7.1-3.584 3.385 3.385 0 0 0-.465 1.72c0 1.192.602 2.248 1.534 2.848-.57 0-1.1-.16-1.566-.4v.024a3.438 3.438 0 0 0 2.762 3.368 3.402 3.402 0 0 1-1.55.056 3.435 3.435 0 0 0 3.212 2.384 6.86 6.86 0 0 1-4.28 1.472c-.273 0-.546-.016-.819-.048a9.78 9.78 0 0 0 5.284 1.544c6.328 0 9.806-5.232 9.806-9.768 0-.152 0-.296-.009-.448A6.87 6.87 0 0 0 24.8 11.2Z"
    />
</svg>
