<svg
    width="32"
    height="32"
    viewBox="0 0 32 32"
    fill="#00335b"
    xmlns="http://www.w3.org/2000/svg"
>
    <path
        fill-rule="evenodd"
        clip-rule="evenodd"
        d="M16 32C7.163 32 0 24.837 0 16S7.163 0 16 0s16 7.163 16 16-7.163 16-16 16Zm8-11.824c0-1.713-.094-2.973-.28-3.779-.094-.424-.301-.78-.621-1.068a1.974 1.974 0 0 0-1.107-.508c-1.324-.144-3.322-.216-5.992-.216s-4.664.072-5.981.216c-.425.05-.795.22-1.112.508a2.05 2.05 0 0 0-.626 1.068C8.094 17.232 8 18.492 8 20.176c0 1.713.094 2.973.28 3.779.094.424.301.78.621 1.069.32.287.69.453 1.107.496 1.324.151 3.322.227 5.992.227s4.668-.076 5.992-.227a1.889 1.889 0 0 0 1.101-.497 2.05 2.05 0 0 0 .626-1.068c.187-.835.281-2.095.281-3.779ZM13.225 6.4l-.734 2.84-.766-2.84H10.58c.202.605.436 1.278.702 2.019.338.993.558 1.756.659 2.289v2.925h1.08v-2.925L14.326 6.4h-1.102Zm7.612 1.846h-.983v4.114c-.216.309-.42.464-.615.464-.13 0-.205-.08-.227-.238a2.826 2.826 0 0 1-.01-.378V8.246h-.983V12.5c0 .367.029.637.086.81.094.266.306.399.637.399.36 0 .73-.223 1.112-.67v.595h.983V8.245Zm-3.617 1.75c0-.577-.1-.998-.302-1.264-.267-.367-.648-.55-1.145-.55-.482 0-.86.183-1.133.55-.202.266-.303.687-.303 1.263v1.89c0 .575.101 1 .303 1.273.273.367.651.551 1.133.551.497 0 .878-.184 1.145-.55.201-.267.302-.692.302-1.275V9.995Zm-5.808 7.492v6.143h-1.08v-6.143H9.198v-1.015h3.369v1.015h-1.155Zm3.109 6.143v-.583c-.389.439-.756.658-1.101.658-.331 0-.54-.133-.627-.4-.057-.172-.086-.435-.086-.787v-4.222h.961v3.93c0 .23.004.357.01.378.022.151.098.227.227.227.195 0 .4-.151.616-.454v-4.08h.96v5.333h-.96Zm4.631-1.598c0 .525-.032.885-.097 1.08-.122.395-.378.593-.766.593-.346 0-.68-.198-1.004-.593v.518h-.961v-7.158h.96v2.343c.31-.389.645-.583 1.005-.583.388 0 .644.201.766.604.065.187.098.544.098 1.07v2.126Zm-.96-2.203c0-.482-.14-.723-.421-.723-.166 0-.328.08-.486.238v3.25c.158.158.32.237.486.237.28 0 .42-.241.42-.724v-2.277Zm4.61 2.095c0 .353-.008.561-.022.626a1.311 1.311 0 0 1-.227.583c-.259.382-.648.572-1.166.572-.496 0-.885-.183-1.166-.55-.208-.267-.313-.684-.313-1.253v-1.867c0-.569.101-.986.302-1.253.281-.367.666-.55 1.156-.55.482 0 .863.183 1.144.55.194.267.292.684.292 1.253v1.112h-1.933v.939c0 .497.166.745.497.745.237 0 .381-.13.432-.389.014-.072.021-.291.021-.658h.983v.14Zm-.961-2.084c0-.49-.162-.734-.486-.734-.324 0-.486.245-.486.734v.497h.972v-.497Zm-5.604-7.773c0 .504-.154.756-.464.756-.31 0-.464-.252-.464-.756V9.801c0-.497.155-.745.464-.745.31 0 .465.248.465.745v2.267Z"
    />
</svg>
